<svg width="1322" height="1619" viewBox="0 0 1322 1619" fill="none" xmlns="http://www.w3.org/2000/svg">
<line x1="938.152" y1="228.633" x2="1248.15" y2="46.6334" stroke="white" stroke-opacity="0.2" stroke-width="31"/>
<path d="M1093.42 275.967L1195.42 346.967" stroke="white" stroke-opacity="0.2" stroke-width="61" stroke-linecap="round"/>
<line x1="918.474" y1="5.02252" x2="1044.47" y2="17.0225" stroke="white" stroke-opacity="0.2" stroke-width="10"/>
<path d="M739 125.535L828.981 82" stroke="white" stroke-opacity="0.5" stroke-width="35" stroke-linecap="round"/>
<path d="M431 113L645 294" stroke="white" stroke-opacity="0.5" stroke-width="20" stroke-linecap="round"/>
<path d="M160 296L347 188" stroke="white" stroke-opacity="0.5" stroke-width="10" stroke-linecap="round"/>
<path d="M1127 639L1276 376" stroke="white" stroke-opacity="0.3" stroke-width="20" stroke-linecap="round"/>
<path d="M37 468L148 559" stroke="white" stroke-opacity="0.7" stroke-width="25" stroke-linecap="round"/>
<path d="M849 562L988 610" stroke="white" stroke-opacity="0.5" stroke-width="25" stroke-linecap="round"/>
<path d="M698 639L469 777" stroke="white" stroke-opacity="0.5" stroke-width="25" stroke-linecap="round"/>
<path d="M253 777L13 700" stroke="white" stroke-opacity="0.2" stroke-width="25" stroke-linecap="round"/>
<line x1="385.901" y1="482.533" x2="551.901" y2="494.533" stroke="white" stroke-opacity="0.2" stroke-width="25"/>
<line x1="453.298" y1="283.679" x2="703.298" y2="400.678" stroke="white" stroke-opacity="0.2" stroke-width="25"/>
<line y1="-15.5" x2="375.039" y2="-15.5" transform="matrix(0.874357 -0.485283 0.527572 0.84951 961.926 1071)" stroke="white" stroke-opacity="0.2" stroke-width="31"/>
<path d="M1117.87 1104.97L1225.77 1175.97" stroke="white" stroke-opacity="0.2" stroke-width="61" stroke-linecap="round"/>
<line y1="-5" x2="133.822" y2="-5" transform="matrix(0.995971 0.0896715 -0.100235 0.994964 932.308 839)" stroke="white" stroke-opacity="0.2" stroke-width="10"/>
<path d="M625.546 888.535L720.728 845" stroke="white" stroke-opacity="0.5" stroke-width="35" stroke-linecap="round"/>
<path d="M335.709 822L562.078 1003" stroke="white" stroke-opacity="0.9" stroke-width="20" stroke-linecap="round"/>
<path d="M130.496 1125L328.305 1017" stroke="white" stroke-opacity="0.5" stroke-width="10" stroke-linecap="round"/>
<path d="M1153.39 1468L1311 1205" stroke="white" stroke-opacity="0.3" stroke-width="20" stroke-linecap="round"/>
<path d="M859.32 1391L1006.35 1439" stroke="white" stroke-opacity="0.5" stroke-width="25" stroke-linecap="round"/>
<path d="M699.592 1468L457.356 1606" stroke="white" stroke-opacity="0.3" stroke-width="25" stroke-linecap="round"/>
<path d="M361.953 1272.54L537.548 1284.54" stroke="white" stroke-opacity="0.2" stroke-width="25" stroke-linecap="round"/>
<line y1="-12.5" x2="289.176" y2="-12.5" transform="matrix(0.914495 0.404598 -0.443661 0.896195 435.143 1124)" stroke="white" stroke-opacity="0.2" stroke-width="25"/>
</svg>
