<svg width="62" height="160" viewBox="0 0 62 160" fill="none" xmlns="http://www.w3.org/2000/svg">
<path d="M40.9476 1.03418C40.9476 2.5 41.4226 4.98608 40.9476 7.46766C40.7053 8.7333 40.0798 10.3278 39.5634 11.5114C39.071 12.6401 38.5606 13.7608 38.1127 14.908L37.4622 16.5745C36.4279 19.2239 35.6308 22.0306 35.9012 24.8619V24.8619C36.0295 26.2046 36.4535 27.8704 36.8659 29.2561C37.4149 31.1007 38.3563 32.7954 39.5007 34.3427V34.3427C40.4619 35.6425 41.5813 36.8151 42.7686 37.9122C43.621 38.7 44.5954 39.6519 45.273 40.469C45.41 40.6342 45.5501 40.8122 45.691 40.9984C47.3804 43.2302 48.3671 45.8948 49.0662 48.6053V48.6053C49.6117 50.7203 49.9562 52.8901 49.8448 55.0714C49.7651 56.6339 49.5796 58.4666 49.1659 59.8886C48.9131 60.7579 48.4883 61.7714 48.0478 62.7133C47.0541 64.8383 45.6391 66.7275 44.0768 68.4774L42.7192 69.9981C40.8805 72.0576 39.4299 74.4332 38.4378 77.0097V77.0097C37.4282 79.6315 36.9105 82.4169 36.9105 85.2264V87.1445C36.9105 91.4565 38.3252 95.5628 39.9383 99.5617V99.5617V99.5617C41.9789 104.62 46.3531 108.529 47.5537 113.849C47.7419 114.684 47.902 115.497 48.0125 116.241C48.2583 117.896 48.3536 119.844 48.3674 121.752C48.4081 127.358 47.0929 132.86 45.273 138.163V138.163" stroke="#007019" stroke-width="3"/>
<path d="M49.5 1C49.5 1.5924 49.4148 2.4018 49.2948 3.24767C48.8934 6.07789 48.3037 8.91637 48.5286 11.766V11.766C48.6404 13.1829 49.0242 14.9592 49.3819 16.3875C49.8058 18.0802 50.5391 19.6738 51.449 21.1628V21.1628C52.2816 22.5253 53.2781 23.7786 54.3376 24.9732C55.0101 25.7315 55.753 26.6186 56.2793 27.3868C56.3506 27.4908 56.4229 27.5999 56.4957 27.7129C58.027 30.0891 58.8428 32.8386 59.432 35.6033V35.6033C59.8731 37.6734 60.1493 39.7803 60.0647 41.8951C60.0013 43.4817 59.8488 45.3675 59.4989 46.8232C59.2838 47.7179 58.9185 48.7652 58.5432 49.7303C57.7418 51.7914 56.5723 53.6813 55.2595 55.4609L54.3952 56.6325C52.7213 58.9015 51.4312 61.4299 50.5763 64.1167V64.1167C49.7724 66.6432 49.3633 69.2785 49.3633 71.9297V74.3288C49.3633 78.5166 50.5431 82.5579 51.8674 86.5308V86.5308V86.5308C53.4788 91.3652 57.1041 95.3671 58.0774 100.369C58.2711 101.364 58.4368 102.344 58.5449 103.225C58.7532 104.921 58.8308 106.926 58.8392 108.879C58.863 114.401 57.786 119.852 56.2793 125.165V125.165" stroke="#A0FFB5" stroke-width="3"/>
<path d="M45.1067 1C45 8 46.9995 19.5163 46.6067 22C46.3822 23.4195 45.8775 27.5505 45.5211 30.5304C45.2588 32.7231 44.7897 34.8842 44.1118 36.9859L44.0649 37.1312C43.1896 39.8446 42.522 42.6693 42.7463 45.5115V45.5115C42.8582 46.9284 43.2419 48.7047 43.5996 50.1329C44.0235 51.8257 44.7568 53.4193 45.6667 54.9083V54.9083C46.4994 56.2708 47.4959 57.5241 48.5554 58.7187C49.2278 59.477 49.9707 60.364 50.497 61.1322C50.5683 61.2362 50.6406 61.3453 50.7135 61.4584C52.2448 63.8346 53.0605 66.584 53.6497 69.3488V69.3488C54.0909 71.4188 54.367 73.5257 54.2824 75.6405C54.219 77.2271 54.0665 79.1129 53.7166 80.5687C53.5015 81.4634 53.1362 82.5107 52.7609 83.4758C51.9595 85.5369 50.79 87.4267 49.4772 89.2063L48.6129 90.378C46.939 92.647 45.6489 95.1753 44.794 97.8622V97.8622C43.9902 100.389 43.581 103.024 43.581 105.675V108.074C43.581 112.262 44.7608 116.303 46.0851 120.276V120.276V120.276C47.6966 125.111 51.3219 129.113 52.2952 134.115C52.4888 135.11 52.6545 136.089 52.7626 136.97C52.9709 138.667 53.0485 140.671 53.0569 142.624C53.0807 148.147 52.0037 153.598 50.497 158.911V158.911" stroke="#00FF38" stroke-width="3"/>
<path d="M35.5 1C35.5 1.93093 36.1492 3.28109 36.964 4.60918C38.8407 7.66786 40.5731 10.8604 41.3211 14.3701V14.3701C41.5943 15.6522 41.7577 16.9558 41.7356 18.2665C41.7062 20.0089 41.5805 22.5549 41.1356 24.4057C40.9205 25.3004 40.5552 26.3477 40.1799 27.3128C39.3785 29.3739 38.209 31.2638 36.8962 33.0434L36.0319 34.215C34.358 36.484 33.0679 39.0123 32.213 41.6992V41.6992C31.4092 44.2256 31 46.861 31 49.5122V51.9113C31 56.099 32.1798 60.1404 33.5041 64.1133V64.1133V64.1133C35.1155 68.9477 38.7408 72.9495 39.7142 77.9516C39.9078 78.9467 40.0735 79.9261 40.1816 80.8072C40.3899 82.5035 40.4675 84.5084 40.4759 86.4614C40.4997 91.9838 39.4227 97.4348 37.916 102.748V102.748" stroke="#00FFC2" stroke-width="3"/>
<path d="M8.2995 1.02187C8.2995 2.39449 8.60032 3.52448 8.2995 5.09599C8.14607 5.89748 7.74993 6.90724 7.42293 7.65677C7.1111 8.37154 6.78787 9.08127 6.50427 9.80772L6.09229 10.863C5.4373 12.5408 4.93252 14.3183 5.10379 16.1112V16.1112C5.18502 16.9615 5.45356 18.0164 5.71471 18.8939C6.06235 20.0621 6.6585 21.1352 7.38321 22.1152V22.1152C7.99195 22.9383 8.70083 23.6808 9.45269 24.3756C9.99253 24.8745 10.6096 25.4773 11.0387 25.9947C11.1254 26.0993 11.2141 26.2121 11.3034 26.33C12.3732 27.7433 12.9981 29.4307 13.4408 31.1472V31.1472C13.7862 32.4865 14.0044 33.8606 13.9338 35.242C13.8833 36.2315 13.7659 37.3921 13.5039 38.2926C13.3438 38.8431 13.0748 39.4849 12.7959 40.0814C12.1666 41.427 11.2705 42.6234 10.2812 43.7316L9.4214 44.6946C8.257 45.9988 7.33843 47.5032 6.71015 49.1348V49.1348C6.07081 50.7951 5.74293 52.5591 5.74293 54.3382V55.5529C5.74293 58.2835 6.6388 60.884 7.66036 63.4163V63.4163V63.4163C8.95261 66.6197 11.7227 69.0948 12.4829 72.4643C12.6021 72.9925 12.7035 73.5079 12.7735 73.9789C12.9292 75.0267 12.9895 76.2607 12.9983 77.4685C13.024 81.0187 12.1912 84.5029 11.0387 87.8611V87.8611" stroke="#007019" stroke-width="3"/>
<path d="M14.5 1C14.5 1.74357 14.4516 2.35235 14.3729 2.85076C14.1306 4.38432 12.9781 6.27005 13.1003 7.81782V7.81782C13.1711 8.71506 13.4141 9.83997 13.6406 10.7444C13.9091 11.8164 14.3735 12.8256 14.9497 13.7685V13.7685C15.477 14.6313 16.108 15.425 16.779 16.1815C17.2048 16.6617 17.6753 17.2235 18.0086 17.7099C18.0537 17.7758 18.0995 17.8449 18.1456 17.9165C19.1154 19.4212 19.632 21.1624 20.0051 22.9132V22.9132C20.2845 24.2241 20.4593 25.5584 20.4058 26.8976C20.3656 27.9024 20.269 29.0966 20.0474 30.0185C19.9112 30.585 19.6799 31.2483 19.4422 31.8594C18.9347 33.1647 18.1941 34.3615 17.3628 35.4884L16.8154 36.2304C15.7554 37.6673 14.9384 39.2684 14.397 40.9699V40.9699C13.888 42.5698 13.6289 44.2387 13.6289 45.9176V47.4369C13.6289 50.0889 14.376 52.6481 15.2146 55.1641V55.1641V55.1641C16.2351 58.2255 18.5309 60.7598 19.1473 63.9274C19.2699 64.5576 19.3748 65.1778 19.4433 65.7358C19.5752 66.81 19.6243 68.0797 19.6297 69.3164C19.6448 72.8136 18.9627 76.2655 18.0086 79.6301V79.6301" stroke="#A0FFB5" stroke-width="3"/>
<path d="M10.9334 1C11 9.5 12.1321 12.7258 11.8833 14.2987C11.7411 15.1976 11.4215 17.8136 11.1958 19.7007C11.0297 21.0892 10.7326 22.4578 10.3033 23.7887L10.2736 23.8808C9.71934 25.5991 9.29655 27.3879 9.43862 29.1878V29.1878C9.50944 30.085 9.75247 31.2099 9.97897 32.1144C10.2474 33.1863 10.7118 34.1955 11.288 35.1384V35.1384C11.8153 36.0013 12.4464 36.7949 13.1173 37.5515C13.5432 38.0317 14.0136 38.5934 14.3469 39.0799C14.392 39.1457 14.4378 39.2149 14.484 39.2864C15.4537 40.7912 15.9703 42.5324 16.3434 44.2832V44.2832C16.6228 45.5941 16.7976 46.9283 16.7441 48.2676C16.7039 49.2723 16.6073 50.4665 16.3858 51.3884C16.2496 51.955 16.0182 52.6182 15.7806 53.2294C15.273 54.5346 14.5325 55.7314 13.7011 56.8584L13.1537 57.6003C12.0937 59.0372 11.2768 60.6383 10.7354 62.3398V62.3398C10.2263 63.9398 9.9672 65.6086 9.9672 67.2876V68.8068C9.9672 71.4588 10.7143 74.0181 11.553 76.534V76.534V76.534C12.5735 79.5955 14.8692 82.1297 15.4856 85.2974C15.6082 85.9275 15.7132 86.5477 15.7817 87.1057C15.9135 88.18 15.9627 89.4496 15.968 90.6864C15.9831 94.1836 15.301 97.6355 14.3469 101V101" stroke="#00FF38" stroke-width="3"/>
<path d="M5 1C5 1.56727 5.40252 2.43217 5.90311 3.28847C7.02748 5.21178 8.05589 7.21402 8.52025 9.39294V9.39294C8.70378 10.2541 8.8139 11.1297 8.79714 12.0101C8.7762 13.1105 8.69391 14.6766 8.41855 15.8222C8.28236 16.3888 8.05099 17.052 7.81335 17.6632C7.30582 18.9684 6.56526 20.1652 5.73389 21.2922L5.18655 22.0341C4.12654 23.471 3.30956 25.0721 2.76816 26.7737V26.7737C2.2591 28.3736 2 30.0425 2 31.7214V33.2406C2 35.8926 2.74712 38.4519 3.58576 40.9678V40.9678V40.9678C4.60625 44.0293 6.90204 46.5635 7.5184 49.7312C7.64102 50.3614 7.74595 50.9815 7.81445 51.5396C7.94632 52.6138 7.99546 53.8834 8.00079 55.1202C8.01587 58.6174 7.33384 62.0693 6.37971 65.4338V65.4338" stroke="#00FFC2" stroke-width="3"/>
</svg>
